<?xml version="1.0" standalone="no"?>
<!DOCTYPE svg PUBLIC "-//W3C//DTD SVG 20010904//EN"
 "http://www.w3.org/TR/2001/REC-SVG-20010904/DTD/svg10.dtd">
<svg version="1.0" xmlns="http://www.w3.org/2000/svg"
 width="584.000000pt" height="584.000000pt" viewBox="0 0 584.000000 584.000000"
 preserveAspectRatio="xMidYMid meet">
<metadata>
Created by potrace 1.11, written by Peter Selinger 2001-2013
</metadata>
<g transform="translate(0.000000,584.000000) scale(0.100000,-0.100000)"
fill="#000000" stroke="none">
<path d="M0 2920 l0 -2920 2920 0 2920 0 0 2920 0 2920 -2920 0 -2920 0 0
-2920z m3215 1046 l180 -104 3 -256 2 -255 -37 -24 c-21 -13 -103 -61 -183
-107 -80 -46 -162 -93 -182 -106 -21 -13 -45 -24 -53 -24 -8 0 -32 11 -53 24
-20 13 -102 60 -182 106 -80 46 -162 94 -183 107 l-37 24 2 255 3 256 175 101
c96 55 197 113 224 128 l50 27 45 -24 c25 -13 127 -71 226 -128z m-1500 -1569
l240 -302 3 303 2 302 50 0 50 0 0 -396 0 -395 -42 3 -43 3 -292 365 c-322
401 -333 420 -250 420 l42 0 240 -303z m900 76 c89 -47 148 -137 161 -246 l7
-57 -247 0 -248 0 7 -32 c21 -94 108 -168 197 -168 46 1 109 31 140 68 25 30
27 30 67 19 l40 -13 -19 -32 c-23 -38 -98 -88 -155 -103 -22 -6 -70 -9 -106
-7 -158 12 -269 135 -269 298 0 124 73 236 183 279 68 28 183 24 242 -6z m582
11 c26 -9 62 -26 79 -38 l32 -21 -22 -28 -22 -28 -47 26 c-84 47 -206 43 -242
-8 -20 -29 -19 -80 3 -100 9 -8 64 -29 122 -45 180 -50 220 -80 220 -165 0
-113 -85 -177 -237 -177 -70 0 -167 27 -212 59 -30 22 -30 23 -16 52 9 16 18
29 22 29 3 0 35 -14 70 -32 107 -52 217 -49 263 9 49 63 12 110 -110 142 -125
32 -172 51 -202 82 -48 48 -36 150 24 206 54 51 183 68 275 37z m1179 -12 c33
-17 114 -92 114 -106 0 -2 -21 -11 -46 -20 -46 -16 -46 -16 -67 10 -25 32 -91
64 -132 64 -101 0 -195 -105 -195 -219 0 -113 95 -221 195 -221 40 0 106 31
137 65 24 25 27 26 67 14 22 -7 41 -17 41 -22 0 -6 -12 -25 -26 -44 -58 -77
-206 -114 -312 -79 -102 34 -185 138 -198 248 -17 146 60 275 193 324 55 21
177 13 229 -14z m-816 -89 c45 -60 84 -109 88 -110 4 -1 43 47 86 107 l80 110
48 0 c26 0 48 -3 48 -7 0 -3 -45 -66 -100 -139 -55 -74 -100 -138 -100 -144 0
-6 42 -66 93 -133 50 -67 98 -129 105 -139 12 -17 9 -18 -40 -18 l-53 1 -80
109 c-44 60 -83 108 -87 107 -4 -1 -43 -50 -88 -109 l-80 -108 -50 0 c-28 0
-50 2 -50 4 0 2 47 66 105 142 58 76 103 144 101 151 -4 10 -133 185 -199 271
-7 9 2 12 42 12 l51 0 80 -107z m-2116 38 l46 -59 0 -226 0 -226 -50 0 -50 0
0 285 c0 157 2 285 4 285 1 0 24 -27 50 -59z m946 -691 c0 -5 23 -10 50 -10
28 0 50 -4 50 -10 0 -5 -22 -10 -50 -10 -61 0 -67 -19 -7 -22 40 -1 40 -1 7
-5 -63 -8 -58 -23 8 -23 35 0 62 -4 62 -10 0 -6 -50 -10 -130 -10 -80 0 -130
4 -130 10 0 6 27 10 60 10 68 0 83 19 18 22 l-43 1 43 4 c59 6 53 23 -8 23
-27 0 -50 5 -50 10 0 6 23 10 50 10 28 0 50 5 50 10 0 6 5 10 10 10 6 0 10 -4
10 -10z m520 0 c0 -15 57 -12 64 3 5 10 7 10 12 0 3 -7 23 -13 45 -13 21 0 39
-4 39 -10 0 -5 -18 -10 -39 -10 -22 0 -42 -6 -45 -12 -5 -10 -7 -10 -12 0 -3
6 -18 12 -34 12 -16 0 -31 -6 -34 -12 -5 -10 -7 -10 -12 0 -3 6 -21 12 -40 12
-19 0 -34 5 -34 10 0 6 16 10 35 10 19 0 35 5 35 10 0 6 5 10 10 10 6 0 10 -4
10 -10z m340 -5 c0 -10 11 -15 35 -15 39 0 42 -5 18 -32 -15 -17 -15 -18 9
-18 23 0 26 -4 30 -44 l3 -45 -40 5 c-37 5 -41 3 -52 -23 -16 -36 -70 -70 -86
-54 -8 8 -8 11 0 11 15 0 73 49 73 62 0 6 -11 8 -25 4 -23 -6 -25 -4 -25 28 0
19 -4 38 -10 41 -6 4 -10 -18 -10 -60 0 -65 0 -65 -25 -59 -19 5 -25 2 -25
-10 0 -9 -4 -16 -10 -16 -6 0 -10 43 -10 110 l0 110 35 0 c33 0 35 -2 35 -32
l0 -31 25 23 c13 13 27 31 31 42 7 22 24 24 24 3z m220 -5 c0 -16 7 -20 31
-20 22 0 32 5 36 20 3 11 9 20 14 20 5 0 9 -9 9 -20 0 -15 7 -20 25 -20 14 0
25 -4 25 -10 0 -5 -11 -10 -25 -10 -16 0 -25 -6 -25 -15 0 -10 11 -15 35 -15
19 0 35 -4 35 -10 0 -5 -13 -10 -30 -10 -35 0 -32 -20 6 -40 13 -7 24 -17 24
-22 0 -13 -22 -9 -42 9 -17 15 -18 15 -18 -14 l0 -29 -60 4 c-50 4 -60 2 -60
-12 0 -13 12 -16 65 -16 51 0 65 3 65 15 0 8 5 15 11 15 6 0 9 -10 7 -22 -3
-21 -9 -23 -77 -26 -82 -3 -91 2 -91 56 0 30 -2 31 -20 20 -15 -10 -22 -10
-32 0 -9 9 -9 12 3 12 9 0 26 11 39 25 l23 25 -31 0 c-18 0 -32 5 -32 10 0 6
16 10 35 10 24 0 35 5 35 15 0 10 -10 15 -30 15 -16 0 -30 5 -30 10 0 6 14 10
30 10 23 0 30 4 30 20 0 11 5 20 10 20 6 0 10 -9 10 -20z m-690 -10 c0 -6 -28
-10 -64 -10 -63 0 -64 -1 -75 -31 -6 -18 -11 -34 -11 -35 0 -2 29 -4 65 -4
l65 0 0 -67 0 -68 -80 0 -80 0 0 49 0 49 -23 -21 c-48 -45 -51 -19 -3 31 18
20 38 50 44 66 l11 31 -45 0 c-24 0 -44 5 -44 10 0 6 47 10 120 10 73 0 120
-4 120 -10z m96 -44 c10 -8 16 -17 12 -21 -7 -7 -48 16 -48 27 0 12 14 9 36
-6z m159 -8 c7 -6 2 -16 -14 -29 -27 -22 -27 -23 13 -36 32 -10 47 -33 22 -33
-11 0 -16 -10 -16 -32 l0 -33 -60 0 -60 0 0 31 c0 24 -5 33 -22 39 -22 6 -21
7 12 22 43 18 44 19 35 32 -4 7 -12 8 -24 1 -33 -17 -32 3 1 31 27 21 40 26
68 22 19 -3 40 -10 45 -15z m-180 -41 c13 -11 15 -16 6 -22 -8 -4 -21 1 -34
14 -17 16 -18 21 -6 21 8 0 23 -6 34 -13z m-395 -62 c0 -62 -1 -65 -24 -65
-14 0 -28 5 -31 10 -3 6 3 10 14 10 12 0 21 7 21 15 0 13 -11 15 -57 13 -51
-3 -58 -6 -61 -25 -7 -49 -22 -20 -22 42 l0 65 80 0 80 0 0 -65z m835 -17 c0
-23 5 -34 18 -36 12 -2 17 3 17 17 0 13 5 19 14 15 8 -3 12 -13 9 -25 -4 -14
-14 -19 -38 -19 -31 0 -33 2 -37 40 -2 23 1 40 7 40 6 0 10 -15 10 -32z m-415
9 c0 -19 -30 -58 -41 -52 -5 4 -2 19 6 36 16 30 35 39 35 16z"/>
<path d="M2425 2418 c-49 -17 -92 -55 -114 -101 -39 -80 -47 -77 178 -77 l200
0 -8 28 c-36 123 -147 188 -256 150z"/>
<path d="M3120 1670 c0 -20 5 -30 15 -30 10 0 15 10 15 30 0 20 -5 30 -15 30
-10 0 -15 -10 -15 -30z"/>
<path d="M3225 1680 c-18 -19 -17 -20 4 -20 27 0 61 17 61 30 0 18 -47 10 -65
-10z"/>
<path d="M3210 1620 c0 -24 35 -28 44 -4 9 23 8 24 -19 24 -18 0 -25 -5 -25
-20z"/>
<path d="M3276 1624 c-9 -24 -8 -26 21 -22 37 4 45 38 10 38 -14 0 -28 -7 -31
-16z"/>
<path d="M3120 1585 c0 -24 5 -35 15 -35 10 0 15 11 15 35 0 24 -5 35 -15 35
-10 0 -15 -11 -15 -35z"/>
<path d="M3470 1665 c0 -10 11 -15 35 -15 24 0 35 5 35 15 0 10 -11 15 -35 15
-24 0 -35 -5 -35 -15z"/>
<path d="M3457 1616 c-5 -13 3 -16 44 -16 36 0 49 4 47 13 -7 19 -84 21 -91 3z"/>
<path d="M3457 1584 c-14 -14 6 -24 49 -24 32 0 44 4 44 15 0 11 -11 15 -43
15 -24 0 -47 -3 -50 -6z"/>
<path d="M2622 1568 l3 -43 55 0 55 0 3 43 3 42 -61 0 -61 0 3 -42z"/>
<path d="M2960 1635 c9 -11 17 -12 31 -4 27 14 24 19 -12 19 -27 0 -30 -2 -19
-15z"/>
<path d="M2950 1584 c-24 -13 -23 -13 24 -14 52 0 53 1 21 18 -15 7 -27 7 -45
-4z"/>
<path d="M2940 1535 c0 -11 11 -15 40 -15 29 0 40 4 40 15 0 11 -11 15 -40 15
-29 0 -40 -4 -40 -15z"/>
<path d="M2325 1590 c3 -5 31 -10 61 -10 30 0 54 5 54 10 0 6 -27 10 -61 10
-37 0 -58 -4 -54 -10z"/>
<path d="M2320 1560 c0 -6 27 -10 60 -10 33 0 60 4 60 10 0 6 -27 10 -60 10
-33 0 -60 -4 -60 -10z"/>
</g>
</svg>
